<svg width="21.000000" height="20.000000" viewBox="0 0 21 15" fill="none" xmlns="http://www.w3.org/2000/svg" xmlns:xlink="http://www.w3.org/1999/xlink">
	<desc>
			Created with Pixso.
	</desc>
	<defs/>
	<path id="Vector" d="M14.95 11.95C13.52 13.03 11.79 13.63 10 13.66C4.16 13.66 0.83 7 0.83 7C1.86 5.06 3.3 3.38 5.04 2.04M8.25 0.53C8.82 0.39 9.41 0.33 10 0.33C15.83 0.33 19.16 7 19.16 7C18.66 7.94 18.05 8.83 17.36 9.65M11.76 8.76C11.53 9.01 11.26 9.2 10.95 9.34C10.64 9.48 10.31 9.55 9.98 9.56C9.64 9.56 9.31 9.5 9 9.38C8.68 9.25 8.4 9.06 8.16 8.83C7.93 8.59 7.74 8.3 7.61 7.99C7.49 7.68 7.43 7.35 7.43 7.01C7.44 6.68 7.51 6.35 7.65 6.04C7.79 5.73 7.98 5.46 8.23 5.23" stroke="#121417" stroke-opacity="1.000000" stroke-width="2.000000" stroke-linejoin="round"/>
</svg>
