<svg width="20" height="20" fill="none" xmlns="http://www.w3.org/2000/svg"><defs><clipPath id="a"><path fill="#fff" fill-opacity="0" d="M0 0h20v20H0z"/></clipPath></defs><path fill="none" d="M0 0h20v20H0z"/><g clip-path="url(#a)" stroke="#F4C550" stroke-width="2" stroke-linejoin="round"><path d="M12.5 2.5h1c1.4 0 2.1 0 2.63.27.47.24.85.62 1.09 1.09.28.53.28 1.23.28 2.64v7c0 1.4 0 2.1-.28 2.63-.24.47-.62.85-1.09 1.09-.53.28-1.23.28-2.63.28" stroke-linecap="round"/><path d="M8.33 5.83 12.5 10l-4.17 4.16M2.5 10"/></g></svg>