<svg width="20" height="20" fill="none" xmlns="http://www.w3.org/2000/svg"><defs><clipPath id="a"><path fill="#fff" fill-opacity="0" d="M0 0h20v20H0z"/></clipPath></defs><path fill="none" d="M0 0h20v20H0z"/><g clip-path="url(#a)" stroke="#121417" stroke-width="2" stroke-linejoin="round"><path d="M14.95 14.95A8.444 8.444 0 0 1 10 16.66C4.16 16.66.83 10 .83 10 1.87 8.06 3.3 6.38 5.05 5.04m3.2-1.51c.57-.14 1.16-.2 1.75-.2 5.83 0 9.16 6.67 9.16 6.67-.5.94-1.11 1.83-1.8 2.65m-5.6-.89c-.23.25-.5.44-.81.58-.31.14-.64.21-.97.22-.34 0-.67-.06-.98-.18-.31-.13-.6-.32-.84-.55-.23-.24-.42-.53-.55-.84-.12-.31-.18-.64-.18-.98.01-.33.08-.66.22-.97.14-.31.33-.58.58-.81"/><path d="m.83.83 18.33 18.33" stroke-linecap="round"/></g></svg>