<svg width="16" height="16" fill="none" xmlns="http://www.w3.org/2000/svg"><defs><clipPath id="a"><path fill="#fff" fill-opacity="0" d="M0 0h16v16H0z"/></clipPath></defs><g clip-path="url(#a)" fill="#FFC531" fill-rule="evenodd"><path d="M7.55.83 5.66 4.41c-.07.14-.2.24-.35.26l-3.99.69c-.4.07-.55.55-.27.84l2.82 2.9c.11.12.16.27.13.42l-.57 4.01c-.06.4.35.7.71.52l3.63-1.79c.14-.06.31-.06.45 0l3.63 1.79c.36.18.77-.12.71-.52l-.57-4.01c-.03-.15.02-.3.13-.42l2.82-2.9c.28-.29.13-.77-.27-.84l-3.99-.69a.467.467 0 0 1-.35-.26L8.44.83a.508.508 0 0 0-.89 0Z"/><path d="M5.66 4.41c-.07.14-.2.24-.35.26l-3.99.69c-.4.07-.55.55-.27.84l2.82 2.9c.11.12.16.27.13.42l-.57 4.01c-.06.4.35.7.71.52l3.63-1.79c.14-.06.31-.06.45 0l3.63 1.79c.36.18.77-.12.71-.52l-.57-4.01c-.03-.15.02-.3.13-.42l2.82-2.9c.28-.29.13-.77-.27-.84l-3.99-.69a.467.467 0 0 1-.35-.26L8.44.83a.508.508 0 0 0-.89 0L5.66 4.41Zm1.07.56c-.25.47-.7.79-1.22.88l-2.68.47 1.9 1.95c.37.38.54.9.46 1.42l-.39 2.7 2.44-1.2c.48-.24 1.03-.24 1.51 0l2.44 1.2-.39-2.7c-.08-.52.09-1.04.46-1.42l1.9-1.95-2.68-.47c-.52-.09-.97-.41-1.22-.88L8 2.57l-1.27 2.4Z"/></g></svg>