<svg width="16" height="16" fill="none" xmlns="http://www.w3.org/2000/svg"><defs><clipPath id="a"><path fill="#fff" fill-opacity="0" d="M0 0h16v16H0z"/></clipPath></defs><path fill="none" d="M0 0h16v16H0z"/><g clip-path="url(#a)" stroke="#000" stroke-width="1.5" stroke-linejoin="round"><path d="M12.26 2c-1.49 0-2.24 0-2.81.29-.5.25-.91.66-1.16 1.16C8 4.02 8 4.77 8 6.26V14l.06-.11c.46-.69.7-1.04 1-1.29.27-.22.59-.39.92-.49.38-.11.8-.11 1.63-.11h.92c.75 0 1.12 0 1.4-.15.25-.13.46-.33.59-.58.14-.29.14-.66.14-1.41V4.13c0-.75 0-1.12-.14-1.41-.13-.25-.34-.45-.59-.58-.28-.14-.65-.14-1.4-.14h-.27ZM3.73 2c1.49 0 2.24 0 2.81.29.5.25.91.66 1.16 1.16.3.57.3 1.32.3 2.81V14l-.07-.11c-.46-.69-.7-1.04-1-1.29-.27-.22-.59-.39-.92-.49-.38-.11-.8-.11-1.63-.11h-.92c-.75 0-1.12 0-1.4-.15-.25-.13-.46-.33-.59-.58-.14-.29-.14-.66-.14-1.41V4.13c0-.75 0-1.12.14-1.41.13-.25.34-.45.59-.58C2.34 2 2.71 2 3.46 2h.27Z"/></g></svg>